<svg xmlns="http://www.w3.org/2000/svg" width="60" height="60" viewBox="0 0 60 60">
  <g id="Group_1172" data-name="Group 1172" transform="translate(-67 -183)">
    <circle id="Ellipse_6" data-name="Ellipse 6" cx="30" cy="30" r="30" transform="translate(67 183)" fill="#64c2a6" opacity="0.08"/>
    <g id="Group_169" data-name="Group 169" transform="translate(-383 -122)">
      <path id="Path_669" data-name="Path 669" d="M1.739,13.042A11.3,11.3,0,0,1,19.9,4.06a.869.869,0,1,0,1.057-1.381,13.043,13.043,0,1,0,5.123,10.364.869.869,0,1,0-1.739,0,11.3,11.3,0,0,1-22.606,0Z" transform="translate(467 322)" fill="#64c2a6"/>
      <path id="Path_670" data-name="Path 670" d="M27.613,6.484a.869.869,0,0,0-1.23-1.23L15.139,16.5a.869.869,0,0,1-1.23,0L8.484,11.074a.869.869,0,0,0-1.23,1.23l5.425,5.425a2.608,2.608,0,0,0,3.689,0Z" transform="translate(466.086 321.347)" fill="#64c2a6"/>
    </g>
  </g>
</svg>
