<svg xmlns="http://www.w3.org/2000/svg" width="16.231" height="16.233" viewBox="0 0 16.231 16.233">
  <path id="Path_693" data-name="Path 693" d="M116,58.24a4.009,4.009,0,0,1-2.836-6.845l4.477-4.477a2.864,2.864,0,1,1,4.051,4.051l-3.584,3.584a.573.573,0,1,1-.81-.81l3.584-3.584a1.719,1.719,0,0,0-2.431-2.431l-4.477,4.477a2.865,2.865,0,0,0,4.051,4.051l8.213-8.214a2.865,2.865,0,1,0-4.051-4.051l-.951.951a.573.573,0,1,1-.81-.81l.951-.951a4.011,4.011,0,0,1,5.672,5.672l-8.214,8.213A4,4,0,0,1,116,58.24Z" transform="translate(-111.995 -42.007)" fill="#37b5e6"/>
</svg>
