<svg xmlns="http://www.w3.org/2000/svg" width="22.016" height="22.016" viewBox="0 0 22.016 22.016">
  <g id="complete" transform="translate(-10.9 -10.9)">
    <path id="Path_1317" data-name="Path 1317" d="M21.908,10.9A11.008,11.008,0,1,0,32.916,21.908,11.008,11.008,0,0,0,21.908,10.9Zm0,19.764a8.756,8.756,0,1,1,8.756-8.756A8.756,8.756,0,0,1,21.908,30.664Z" transform="translate(0 0)" fill="#93b950"/>
    <path id="Path_1318" data-name="Path 1318" d="M38.964,35.307,33.5,40.713l-2.393-2.59a1.154,1.154,0,0,0-1.6-.056,1.126,1.126,0,0,0-.056,1.577l3.181,3.435a1.154,1.154,0,0,0,.816.366h.028a1.211,1.211,0,0,0,.788-.31l6.306-6.222a1.126,1.126,0,0,0,0-1.577A1.154,1.154,0,0,0,38.964,35.307Z" transform="translate(-13.114 -17.313)" fill="#93b950"/>
  </g>
</svg>
