<svg xmlns="http://www.w3.org/2000/svg" width="19.454" height="20.218" viewBox="0 0 19.454 20.218">
  <g id="Group_1831" data-name="Group 1831" transform="translate(-66.561 -325)">
    <path id="Path_699" data-name="Path 699" d="M124.5,30.157h-.292V28.674a.674.674,0,0,0-.674-.674h-2.561a.674.674,0,0,0-.674.674v1.505h-6.11V28.674a.674.674,0,0,0-.674-.674h-2.561a.674.674,0,0,0-.674.674v1.505h-.292a2.471,2.471,0,0,0-2.471,2.471v13.1a2.471,2.471,0,0,0,2.471,2.471H124.5a2.471,2.471,0,0,0,2.471-2.471V32.628a2.471,2.471,0,0,0-2.471-2.471Zm-2.853-.809h1.213v2.336H121.65Zm-10.019,0h1.213v2.336h-1.213Zm-1.64,2.179h.292v.854h0a.674.674,0,0,0,.674.674h2.561a.674.674,0,0,0,.674-.674V31.5h6.11v.854a.674.674,0,0,0,.674.674h2.561a.674.674,0,0,0,.674-.674V31.5h.292a1.123,1.123,0,0,1,1.123,1.123v2.561H108.868V32.628a1.123,1.123,0,0,1,1.123-1.123ZM124.5,46.87H109.991a1.123,1.123,0,0,1-1.123-1.123v-9.21h16.758v9.21A1.123,1.123,0,0,1,124.5,46.87Z" transform="translate(-40.959 297)" fill="#222"/>
    <path id="Path_700" data-name="Path 700" d="M193.2,305.2h12.445v1.348H193.2Z" transform="translate(-123.202 30.92)" fill="#222"/>
    <path id="Path_701" data-name="Path 701" d="M193.2,389.2h12.445v1.348H193.2Z" transform="translate(-123.202 -49.711)" fill="#222"/>
  </g>
</svg>
