<svg xmlns="http://www.w3.org/2000/svg" width="13.607" height="17.319" viewBox="0 0 13.607 17.319">
  <g id="Group_1180" data-name="Group 1180" transform="translate(-815.393 -363)" opacity="0.25">
    <path id="Path_882" data-name="Path 882" d="M223.688,177l-.454,10.889a.422.422,0,0,1-.413.394H214.9a.423.423,0,0,1-.413-.394L214.039,177a.619.619,0,0,0-1.236.052l.454,10.889a1.659,1.659,0,0,0,1.649,1.58h7.917a1.659,1.659,0,0,0,1.649-1.58l.454-10.889a.619.619,0,0,0-1.236-.052Z" transform="translate(603.333 190.801)" fill="#cc2026"/>
    <path id="Path_883" data-name="Path 883" d="M338.8,202.1v8.412a.495.495,0,1,0,.99,0V202.1a.495.495,0,1,0-.99,0Z" transform="translate(482.902 166.718)" fill="#cc2026"/>
    <path id="Path_884" data-name="Path 884" d="M277.2,202.111l.247,8.412a.495.495,0,1,0,.989-.029l-.247-8.412a.495.495,0,0,0-.989.029Z" transform="translate(541.785 166.717)" fill="#cc2026"/>
    <path id="Path_885" data-name="Path 885" d="M395.051,202.078l-.247,8.412a.495.495,0,1,0,.989.029l.247-8.412a.495.495,0,1,0-.989-.029Z" transform="translate(429.372 166.721)" fill="#cc2026"/>
    <path id="Path_886" data-name="Path 886" d="M196.619,130.037h12.37a.619.619,0,1,0,0-1.237h-12.37a.619.619,0,1,0,0,1.237Z" transform="translate(619.393 236.303)" fill="#cc2026"/>
    <path id="Path_887" data-name="Path 887" d="M281.727,83.724l.257-.9a.6.6,0,0,1,.507-.382h2.231a.6.6,0,0,1,.507.382l.258.9,1.189-.34-.257-.9a1.828,1.828,0,0,0-1.7-1.279h-2.231a1.828,1.828,0,0,0-1.7,1.279l-.257.9Z" transform="translate(538.59 281.796)" fill="#cc2026"/>
  </g>
</svg>
