<svg xmlns="http://www.w3.org/2000/svg" width="20.477" height="18.143" viewBox="0 0 20.477 18.143">
  <g id="Group_1936" data-name="Group 1936" transform="translate(-23.238 -25.941)">
    <path id="Path_1320" data-name="Path 1320" d="M43.443,41.788,34.8,26.82a1.439,1.439,0,0,0-2.651,0L23.508,41.788a1.439,1.439,0,0,0,1.326,2.3H42.118a1.439,1.439,0,0,0,1.326-2.3Zm-.89,1.017c-.037.064-.172.137-.436.137H24.834c-.263,0-.4-.074-.436-.137s-.033-.218.1-.446l8.642-14.967c.132-.228.264-.309.337-.309s.206.081.337.309l8.641,14.968C42.586,42.587,42.59,42.742,42.553,42.8Z" transform="translate(0 0)" fill="red"/>
    <path id="Path_1321" data-name="Path 1321" d="M48.63,59.516a.954.954,0,1,0,.929.953A.895.895,0,0,0,48.63,59.516Z" transform="translate(-15.161 -20.797)" fill="red"/>
    <path id="Path_1322" data-name="Path 1322" d="M49.21,48.16a.571.571,0,0,0,.571-.571V43.064a.571.571,0,1,0-1.142,0v4.525A.571.571,0,0,0,49.21,48.16Z" transform="translate(-15.734 -10.252)" fill="red"/>
  </g>
</svg>
