<svg xmlns="http://www.w3.org/2000/svg" width="18.585" height="17.971" viewBox="0 0 18.585 17.971">
  <g id="Group_1409" data-name="Group 1409" transform="translate(-639.85 -269.85)">
    <path id="Path_881" data-name="Path 881" d="M72.384,9.632A2.39,2.39,0,0,0,70,12.018v9.654a2.39,2.39,0,0,0,2.385,2.385h2.139a.294.294,0,0,1,.3.3V26.5a.8.8,0,0,0,1.417.5l2.011-2.515a1.118,1.118,0,0,1,.874-.42H85.9a2.39,2.39,0,0,0,2.385-2.385V12.018A2.39,2.39,0,0,0,85.9,9.632Zm0,.914H85.9a1.457,1.457,0,0,1,1.471,1.471v9.654A1.457,1.457,0,0,1,85.9,23.143H79.126a2.035,2.035,0,0,0-1.588.763l-1.8,2.25v-1.8a1.222,1.222,0,0,0-1.215-1.215H72.384a1.457,1.457,0,0,1-1.471-1.471V12.018a1.457,1.457,0,0,1,1.471-1.471Z" transform="translate(570.001 260.368)" fill="#52c8f8" stroke="#52c8f8" stroke-width="0.3" fill-rule="evenodd"/>
    <path id="Path_882" data-name="Path 882" d="M129.455,305.19c-.19,0-.345.2-.345.457s.154.457.345.457h10.189c.19,0,.345-.2.345-.457s-.154-.457-.345-.457Z" transform="translate(514.594 -26.54)" fill="#52c8f8" stroke="#52c8f8" stroke-width="0.3" fill-rule="evenodd"/>
    <path id="Path_884" data-name="Path 884" d="M129.567,127.86a.457.457,0,0,0,0,.914h5.79a.457.457,0,1,0,0-.914Z" transform="translate(514.594 147)" fill="#52c8f8" stroke="#52c8f8" stroke-width="0.3" fill-rule="evenodd"/>
  </g>
</svg>
