<svg xmlns="http://www.w3.org/2000/svg" width="15.661" height="15.671" viewBox="0 0 15.661 15.671">
  <g id="Group_485" data-name="Group 485" transform="translate(-480.75 -662.738)">
    <g id="upload_1_" data-name="upload (1)" transform="translate(481 663)">
      <g id="Group_187" data-name="Group 187" transform="translate(0 0)">
        <g id="Group_186" data-name="Group 186" transform="translate(0 0)">
          <path id="Path_680" data-name="Path 680" d="M12.474,4.563c.005-.086.008-.172.008-.262a4.293,4.293,0,0,0-8.4-1.258c-.064,0-.126-.005-.186-.005a3.788,3.788,0,0,0,0,7.576H6.171a.253.253,0,0,0,0-.505H3.9a3.283,3.283,0,0,1,0-6.566,3.391,3.391,0,0,1,.348.019.258.258,0,0,0,.27-.19,3.788,3.788,0,0,1,7.462.928,3.426,3.426,0,0,1-.031.471.253.253,0,0,0,.25.287h.033a2.525,2.525,0,0,1,0,5.051H9.216a.253.253,0,0,0,0,.505h3.013a3.03,3.03,0,0,0,.245-6.051Z" transform="translate(-0.108 0)" fill="#37b5e6" stroke="#37b5e6" stroke-width="0.5"/>
          <path id="Path_681" data-name="Path 681" d="M150.011,151.963l-3.036-3.035-3.036,3.035.357.357,2.426-2.426v9.492h.505v-9.492l2.426,2.426Z" transform="translate(-139.4 -144.227)" fill="#37b5e6" stroke="#37b5e6" stroke-width="0.5"/>
        </g>
      </g>
    </g>
  </g>
</svg>
