<?xml version="1.0" encoding="UTF-8" standalone="no"?>
<svg
   xmlns:dc="http://purl.org/dc/elements/1.1/"
   xmlns:cc="http://creativecommons.org/ns#"
   xmlns:rdf="http://www.w3.org/1999/02/22-rdf-syntax-ns#"
   xmlns:svg="http://www.w3.org/2000/svg"
   xmlns="http://www.w3.org/2000/svg"
   viewBox="0 0 1587.4 1122.52"
   height="1122.52"
   width="1587.4"
   xml:space="preserve"
   id="svg2"
   version="1.1"><metadata
     id="metadata8"><rdf:RDF><cc:Work
         rdf:about=""><dc:format>image/svg+xml</dc:format><dc:type
           rdf:resource="http://purl.org/dc/dcmitype/StillImage" /></cc:Work></rdf:RDF></metadata><defs
     id="defs6"><clipPath
       id="clipPath18"
       clipPathUnits="userSpaceOnUse"><path
         id="path16"
         d="M 0,841.89 H 1190.551 V 0 H 0 Z" /></clipPath></defs><g
     transform="matrix(1.3333333,0,0,-1.3333333,0,1122.52)"
     id="g10"><g
       id="g12"><g
         clip-path="url(#clipPath18)"
         id="g14"><g
           transform="translate(188.0165,436.6128)"
           id="g20"><path
             id="path22"
             style="fill:#206745;fill-opacity:1;fill-rule:nonzero;stroke:none"
             d="m 0,0 c 0,0 -5.295,6.918 -17.07,6.918 -10.362,0 -17.516,-12.103 -17.516,-32.173 0,-20.07 12.309,-24.665 18.929,-24.665 12.386,0 17.293,7.981 17.293,7.981 l -0.468,7.496 c 0,0 -3.97,-4.836 -10.749,-4.836 -6.778,0 -9.581,7.738 -9.581,16.926 0,9.189 3.503,15.404 8.88,15.404 5.376,0 9.581,-4.11 9.581,-4.11 z" /></g><g
           transform="translate(197.5547,406.2802)"
           id="g24"><path
             id="path26"
             style="fill:#206745;fill-opacity:1;fill-rule:nonzero;stroke:none"
             d="M 0,0 V 37.482 H -14.834 V -8.946 c 0,0 -0.002,-10.398 11.941,-10.398 11.944,0 16.023,15.717 16.023,15.717 0,0 -4.228,-4.111 -10.014,-4.111 C -0.667,-7.738 0,-2.177 0,0" /></g><g
           transform="translate(480.793,435.057)"
           id="g28"><path
             id="path30"
             style="fill:#206745;fill-opacity:1;fill-rule:nonzero;stroke:none"
             d="m 0,0 c 0,0 -5.763,7.495 -16.124,7.495 -10.362,0 -18.462,-11.124 -18.462,-31.194 0,-20.07 12.308,-24.665 18.929,-24.665 12.386,0 17.293,7.981 17.293,7.981 l -0.468,7.495 c 0,0 -3.971,-4.835 -10.749,-4.835 -6.777,0 -9.581,7.738 -9.581,16.926 0,9.189 3.504,14.75 8.879,14.75 5.377,0 9.583,-4.11 9.583,-4.11 z" /></g><g
           transform="translate(490.3318,406.2802)"
           id="g32"><path
             id="path34"
             style="fill:#206745;fill-opacity:1;fill-rule:nonzero;stroke:none"
             d="M 0,0 V 37.482 H -14.834 V -8.946 c 0,0 -0.003,-10.398 11.941,-10.398 11.944,0 16.023,15.717 16.023,15.717 0,0 -4.228,-4.111 -10.014,-4.111 C -0.668,-7.738 0,-2.177 0,0" /></g><g
           transform="translate(219.1321,406.3303)"
           id="g36"><path
             id="path38"
             style="fill:#206745;fill-opacity:1;fill-rule:nonzero;stroke:none"
             d="m 0,0 v 58.229 c 0,5.669 -5.143,5.56 -5.143,5.56 H -9.49 c 0,0 -5.344,0.09 -5.344,-6.327 V -8.946 c 0,0 -0.003,-10.399 11.941,-10.399 11.943,0 16.022,15.717 16.022,15.717 0,0 -4.228,-4.11 -10.013,-4.11 C -0.668,-7.738 0,-2.176 0,0" /></g><g
           transform="translate(288.4398,421.2797)"
           id="g40"><path
             id="path42"
             style="fill:#206745;fill-opacity:1;fill-rule:nonzero;stroke:none"
             d="m 0,0 v 11.915 c 0,0 0.003,10.398 -11.941,10.398 -14.374,0 -16.023,-20.943 -16.023,-20.943 0,0 4.228,4.111 10.014,4.111 3.783,0 3.116,-5.561 3.116,-7.738 v -8.466 l -0.04,-14.302 c 0,0 -0.003,-10.398 11.941,-10.398 11.943,0 19.361,19.351 19.361,19.351 0,0 -7.039,-9.888 -13.108,-8.59 -3.705,0.792 -3.36,6.407 -3.36,8.584 z" /></g><g
           transform="translate(419.064,386.9857)"
           id="g44"><path
             id="path46"
             style="fill:#206745;fill-opacity:1;fill-rule:nonzero;stroke:none"
             d="m 0,0 c -15.788,0 -14.347,11.532 -14.347,11.532 v 65.274 c 0,6.417 6.423,6.328 6.423,6.328 h 5.37 c 0,0 6.031,0.148 6.031,-6.589 V 18.14 c 0,-2.176 -0.803,-7.737 3.744,-7.737 H 27.119 V -0.132 Z" /></g><g
           transform="translate(248.8802,419.0224)"
           id="g48"><path
             id="path50"
             style="fill:#206745;fill-opacity:1;fill-rule:nonzero;stroke:none"
             d="m 0,0 v -26.713 c 0,-5.096 4.541,-5.56 4.541,-5.56 h 4.948 c 0,0 5.345,-0.09 5.345,6.327 v 40.119 c 0,0 0.003,10.397 -11.941,10.397 -14.373,0 -16.023,-20.943 -16.023,-20.943 0,0 4.229,4.111 10.014,4.111 C 0.667,7.738 0,2.177 0,0" /></g><g
           transform="translate(512.5766,411.5209)"
           id="g52"><path
             id="path54"
             style="fill:#206745;fill-opacity:1;fill-rule:nonzero;stroke:none"
             d="m 0,0 v 26.713 c 0,5.095 -4.541,5.56 -4.541,5.56 H -9.49 c 0,0 -5.345,0.09 -5.345,-6.327 v -40.118 c 0,0 2.555,-10.398 14.499,-10.398 14.373,0 20.12,19.166 20.12,19.166 0,0 -10.883,-7.274 -16.669,-7.274 C -0.668,-12.678 0,-2.177 0,0" /></g><g
           transform="translate(624.57,411.5226)"
           id="g56"><path
             id="path58"
             style="fill:#206745;fill-opacity:1;fill-rule:nonzero;stroke:none"
             d="m 0,0 v 26.713 c 0,5.095 -4.539,5.56 -4.539,5.56 h -4.948 c 0,0 -5.347,0.09 -5.347,-6.327 v -37.868 c 0,0 -0.036,-12.649 14.499,-12.649 14.374,0 20.118,19.167 20.118,19.167 0,0 -8.588,-9.351 -16.666,-7.274 C -0.555,-11.734 0,-2.176 0,0" /></g><g
           transform="translate(537.0782,387.1353)"
           id="g60"><path
             id="path62"
             style="fill:#206745;fill-opacity:1;fill-rule:nonzero;stroke:none"
             d="m 0,0 c -14.061,0 -15.094,13.263 -15.094,13.263 v 37.319 c 0,6.416 5.343,6.327 5.343,6.327 h 4.95 c 0,0 4.542,-0.464 4.542,-5.56 V 25.188 c 0,-2.176 -1.307,-13.18 6.209,-13.18 1.938,0 8.37,-0.248 8.37,17.058 0,14.298 -4.976,12.889 -4.976,22.322 0,5.239 5.577,7.274 8.726,7.274 3.15,0 11.151,-2.257 11.151,-15.551 C 29.221,10.254 9.359,0 0,0" /></g><g
           transform="translate(241.4332,414.9447)"
           id="g64"><path
             id="path66"
             style="fill:#206745;fill-opacity:1;fill-rule:nonzero;stroke:none"
             d="m 0,0 v 23.278 c 0,5.096 -4.541,5.56 -4.541,5.56 h -4.948 c 0,0 -5.345,0.089 -5.345,-6.328 V 1.004 0.775 -22.502 c 0,-5.095 4.54,-5.559 4.54,-5.559 h 4.949 c 0,0 5.345,-0.091 5.345,6.327 l 0,21.506 z" /></g><g
           transform="translate(357.0616,414.9447)"
           id="g68"><path
             id="path70"
             style="fill:#206745;fill-opacity:1;fill-rule:nonzero;stroke:none"
             d="m 0,0 v 23.278 c 0,5.096 -4.541,5.56 -4.541,5.56 h -4.948 c 0,0 -5.345,0.089 -5.345,-6.328 V 1.004 0.775 -22.502 c 0,-5.095 4.541,-5.559 4.541,-5.559 h 4.948 c 0,0 5.345,-0.091 5.345,6.327 l 0,21.506 z" /></g><g
           transform="translate(319.7609,386.9857)"
           id="g72"><path
             id="path74"
             style="fill:#206745;fill-opacity:1;fill-rule:nonzero;stroke:none"
             d="m 0,0 c -18.001,0 -27.455,12.773 -27.455,28.529 0,15.755 8,28.528 23.672,28.528 16.871,0 23.673,-12.773 23.673,-28.528 h -37.528 v 6.142 H 3.998 c 0,0 0.363,9.406 -7.272,9.406 -8.727,0 -8.182,-12.604 -8.182,-17.872 0,-5.267 3.273,-18.248 14.726,-18.248 15.091,0 21.817,17.307 21.817,17.307 V 17.363 C 25.087,17.363 19.997,0 0,0" /></g><g
           transform="translate(677.6799,393.133)"
           id="g76"><path
             id="path78"
             style="fill:#206745;fill-opacity:1;fill-rule:nonzero;stroke:none"
             d="m 0,0 c -3.763,-3.459 -9.486,-6.147 -17.508,-6.147 -18.001,0 -27.454,12.773 -27.454,28.528 0,15.755 7.998,28.529 23.672,28.529 16.87,0 23.671,-12.774 23.671,-28.529 h -37.526 v 6.142 h 21.635 c 0,0 0.364,9.406 -7.273,9.406 -8.726,0 -8.18,-12.604 -8.18,-17.872 0,-5.266 3.273,-18.248 14.726,-18.248 4.375,0 8.048,1.457 11.055,3.525 0,0 3.125,1.743 4.215,-0.326 C 2.125,2.939 1.512,1.39 0,0" /></g><g
           transform="translate(353.7565,425.0418)"
           id="g80"><path
             id="path82"
             style="fill:#206745;fill-opacity:1;fill-rule:nonzero;stroke:none"
             d="m 0,0 c 0,0 3.272,5.08 6.545,5.08 3.273,0 6.181,-7.337 12,-7.337 5.816,0 9.089,4.515 9.089,8.842 0,6.019 -5.09,10.723 -12.544,10.723 -9.273,0 -14.362,-5.08 -14.362,-5.08 z" /></g><g
           transform="translate(583.4193,414.9447)"
           id="g84"><path
             id="path86"
             style="fill:#206745;fill-opacity:1;fill-rule:nonzero;stroke:none"
             d="m 0,0 v 23.278 c 0,5.096 -4.539,5.56 -4.539,5.56 h -4.95 c 0,0 -5.344,0.089 -5.344,-6.328 V 1.004 0.775 -22.502 c 0,-5.095 4.543,-5.559 4.543,-5.559 h 4.947 c 0,0 5.343,-0.091 5.343,6.327 l 0,21.506 z" /></g><g
           transform="translate(580.1151,425.0418)"
           id="g88"><path
             id="path90"
             style="fill:#206745;fill-opacity:1;fill-rule:nonzero;stroke:none"
             d="m 0,0 c 0,0 3.272,5.08 6.546,5.08 3.273,0 6.181,-7.337 11.998,-7.337 5.818,0 9.092,4.515 9.092,8.842 0,6.019 -5.092,10.723 -12.545,10.723 -9.272,0 -14.364,-5.08 -14.364,-5.08 z" /></g><g
           transform="translate(624.4792,458.3395)"
           id="g92"><path
             id="path94"
             style="fill:#206745;fill-opacity:1;fill-rule:nonzero;stroke:none"
             d="m 0,0 c 0,-4.294 -3.366,-7.776 -7.516,-7.776 -4.15,0 -7.516,3.482 -7.516,7.776 0,4.294 3.366,7.776 7.516,7.776 C -3.366,7.776 0,4.294 0,0" /></g><g
           transform="translate(723.4589,385.1052)"
           id="g96"><path
             id="path98"
             style="fill:#206745;fill-opacity:1;fill-rule:nonzero;stroke:none"
             d="m 0,0 c -7.067,8.047 -13.826,20.059 -13.826,36.274 0.122,15.412 5.968,26.89 12.479,34.882 0,0 3.414,4.353 6.706,1.965 C 8.79,70.628 6.991,66.685 6.991,66.685 3.52,58.716 1.131,48.616 1.131,36.279 c 0,-12.313 2.457,-22.422 6.017,-30.478 0,0 1.729,-3.869 -0.485,-6.57 C 4.454,-3.471 0.736,-0.839 0,0" /></g><g
           transform="translate(921.7525,456.9843)"
           id="g100"><path
             id="path102"
             style="fill:#206745;fill-opacity:1;fill-rule:nonzero;stroke:none"
             d="m 0,0 c 7.069,-8.047 13.826,-20.059 13.826,-36.274 -0.122,-15.412 -5.968,-26.89 -12.479,-34.882 0,0 -3.411,-4.354 -6.704,-1.965 -3.431,2.492 -1.634,6.435 -1.634,6.435 3.473,7.97 5.86,18.07 5.86,30.407 0,12.313 -2.456,22.421 -6.015,30.478 0,0 -1.731,3.869 0.483,6.57 C -4.453,3.471 -0.735,0.839 0,0" /></g><g
           transform="translate(755.1023,452.1814)"
           id="g104"><path
             id="path106"
             style="fill:#206745;fill-opacity:1;fill-rule:nonzero;stroke:none"
             d="m 0,0 v -35.06 c 0,-11.116 3.865,-16.723 10.477,-16.723 6.87,0 10.65,5.322 10.65,16.723 V 0 h 13.058 v -35.919 c 0,-19.765 -9.022,-29.172 -24.137,-29.172 -14.599,0 -23.105,9.027 -23.105,29.363 l 0,35.728 z" /></g><g
           transform="translate(900.4453,419.4616)"
           id="g108"><path
             id="path110"
             style="fill:#206745;fill-opacity:1;fill-rule:nonzero;stroke:none"
             d="m 0,0 c 0,-2.335 -1.846,-4.245 -4.102,-4.245 h -18.843 v -15.203 h 21.524 c 2.256,0 4.102,-1.91 4.102,-4.245 v -3.389 c 0,-2.335 -1.846,-4.245 -4.102,-4.245 h -31.477 c -2.257,0 -4.103,1.91 -4.103,4.245 v 55.557 c 0,2.335 1.846,4.245 4.103,4.245 h 30.182 c 2.256,0 4.102,-1.91 4.102,-4.245 v -3.389 c 0,-2.334 -1.846,-4.244 -4.102,-4.244 H -22.958 V 7.538 H -4.102 C -1.846,7.538 0,5.628 0,3.293 Z" /></g><g
           transform="translate(124.5832,402.653)"
           id="g112"><path
             id="path114"
             style="fill:#206745;fill-opacity:1;fill-rule:nonzero;stroke:none"
             d="m 0,0 h -8.29 v 18.621 h 6.098 c 4.39,0 11.598,-1.919 11.598,-8.867 C 9.406,4.436 5.854,0 0,0 m -8.29,51.023 h 5.843 c 4.207,0 10.282,-1.253 10.282,-7.254 0,-4.352 -2.57,-7.981 -8.18,-7.981 H -8.29 Z M 17.885,27.561 c 0,0 7.01,6.293 7.01,17.175 0,10.881 -8.647,21.038 -28.978,21.038 -14.724,0 -18.696,-0.043 -18.696,-0.043 V -15.476 H 0.046 c 15.19,0 26.429,6.53 26.429,25.874 0,12.669 -8.59,17.163 -8.59,17.163" /></g><g
           transform="translate(818.4662,407.1708)"
           id="g116"><path
             id="path118"
             style="fill:#206745;fill-opacity:1;fill-rule:nonzero;stroke:none"
             d="M 0,0 5.231,25.517 10.603,0 Z M 14.068,45.011 H -2.305 l -16.781,-64.047 h 14.317 l 2.42,8.986 h 15.843 l 2.796,-8.986 h 14.967 z" /></g><g
           transform="translate(969.9383,450.5933)"
           id="g120"><path
             id="path122"
             style="fill:#206745;fill-opacity:1;fill-rule:nonzero;stroke:none"
             d="m 0,0 c 0.023,-2.033 0.086,-4.937 0.081,-7.848 -0.01,-6.394 -0.033,-22.03 -0.092,-28.429 -0.031,-3.478 -0.148,-6.966 -0.225,-10.45 -0.05,-2.221 -0.112,-4.443 -0.143,-6.662 -0.038,-2.649 1.067,-3.838 3.796,-3.909 1.376,-0.036 2.794,0.207 4.182,0.227 1.599,0.023 3.183,-0.08 4.778,-0.093 2.092,-0.017 4.186,-0.035 6.286,0.019 0.846,0.022 1.093,-0.399 1.089,-1.077 -0.01,-1.869 -0.048,-3.74 -0.083,-5.612 -0.014,-0.791 -0.539,-0.98 -1.214,-0.987 -5.56,-0.054 -11.123,-0.126 -16.681,-0.161 -2.961,-0.019 -5.94,-0.102 -8.866,0.074 -3.939,0.238 -6.954,2.013 -8.475,5.411 -0.581,1.297 -0.344,3.041 -0.363,4.597 -0.053,4.337 -0.064,8.681 -0.057,13.026 0.009,5.477 0.089,10.964 0.07,16.438 -0.014,4.203 -0.227,17.622 -0.156,21.832 0.027,1.632 -0.446,3.467 1.061,4.951 0.829,0.816 1.881,1.706 2.917,1.968 1.529,0.387 3.133,0.244 4.705,0.327 0.899,0.047 1.8,0.11 2.697,0.137 C -2.543,3.843 -0.71,2.63 0,0" /></g><g
           transform="translate(1023.4544,450.5933)"
           id="g124"><path
             id="path126"
             style="fill:#206745;fill-opacity:1;fill-rule:nonzero;stroke:none"
             d="m 0,0 c 0.023,-2.033 0.086,-4.937 0.081,-7.848 -0.01,-6.394 -0.033,-22.03 -0.092,-28.429 -0.031,-3.478 -0.148,-6.966 -0.225,-10.45 -0.05,-2.221 -0.112,-4.443 -0.143,-6.662 -0.038,-2.649 1.067,-3.838 3.796,-3.909 1.376,-0.036 2.794,0.207 4.182,0.227 1.599,0.023 3.183,-0.08 4.778,-0.093 2.092,-0.017 4.186,-0.035 6.286,0.019 0.846,0.022 1.093,-0.399 1.09,-1.077 -0.011,-1.869 -0.049,-3.74 -0.084,-5.612 -0.014,-0.791 -0.539,-0.98 -1.214,-0.987 -5.56,-0.054 -11.123,-0.126 -16.681,-0.161 -2.961,-0.019 -5.94,-0.102 -8.866,0.074 -3.939,0.238 -6.954,2.013 -8.475,5.411 -0.581,1.297 -0.344,3.041 -0.363,4.597 -0.053,4.337 -0.064,8.681 -0.057,13.026 0.009,5.477 0.089,10.964 0.07,16.438 -0.013,4.203 -0.227,17.622 -0.156,21.832 0.027,1.632 -0.446,3.467 1.061,4.951 0.829,0.816 1.881,1.706 2.917,1.968 1.529,0.387 3.133,0.244 4.705,0.327 0.899,0.047 1.8,0.11 2.697,0.137 C -2.543,3.843 -0.71,2.63 0,0" /></g><g
           transform="translate(1083.0452,448.0103)"
           id="g128"><path
             id="path130"
             style="fill:#206745;fill-opacity:1;fill-rule:nonzero;stroke:none"
             d="m 0,0 c 0,0 -0.466,3.666 -2.995,5.239 -4.303,2.676 -12.453,2.931 -19.02,-4.853 -7.876,-9.334 -13.193,-40.189 -2.317,-53.299 10.061,-12.127 19.12,-8.505 20.198,-8.326 5.702,0.951 9.472,14.258 -3.66,13.099 -13.131,-1.159 -11.395,37.585 -0.703,38.484 C -0.621,-8.993 -0.21,-3.997 0,0" /></g><g
           transform="translate(1003.3151,391.0525)"
           id="g132"><path
             id="path134"
             style="fill:#206745;fill-opacity:1;fill-rule:nonzero;stroke:none"
             d="m 0,0 c 0,-2.757 -2.235,-4.991 -4.991,-4.991 -2.757,0 -4.992,2.234 -4.992,4.991 0,2.757 2.235,4.991 4.992,4.991 C -2.235,4.991 0,2.757 0,0" /></g><g
           transform="translate(1055.6715,391.0525)"
           id="g136"><path
             id="path138"
             style="fill:#206745;fill-opacity:1;fill-rule:nonzero;stroke:none"
             d="m 0,0 c 0,-2.757 -2.235,-4.991 -4.991,-4.991 -2.757,0 -4.991,2.234 -4.991,4.991 0,2.757 2.234,4.991 4.991,4.991 C -2.235,4.991 0,2.757 0,0" /></g><g
           transform="translate(1096.8781,391.0525)"
           id="g140"><path
             id="path142"
             style="fill:#206745;fill-opacity:1;fill-rule:nonzero;stroke:none"
             d="m 0,0 c 0,-2.757 -2.235,-4.991 -4.991,-4.991 -2.757,0 -4.992,2.234 -4.992,4.991 0,2.757 2.235,4.991 4.992,4.991 C -2.235,4.991 0,2.757 0,0" /></g></g></g></g></svg>