<svg xmlns="http://www.w3.org/2000/svg" width="15" height="15" viewBox="0 0 15 15">
  <path id="right-" d="M11.071,34.474l3.6,4.112a1.427,1.427,0,0,1,0,1.828l-3.6,4.112a.932.932,0,0,1-.7.331,1.072,1.072,0,0,1-.993-1.135V41.643H5.625a1.01,1.01,0,0,1-.937-1.071V38.429a1.01,1.01,0,0,1,.938-1.071h3.75V35.278a1.072,1.072,0,0,1,.993-1.135A.944.944,0,0,1,11.071,34.474Zm-6.384-.331H2.812a1.01,1.01,0,0,0-.937,1.071v8.571a1.01,1.01,0,0,0,.937,1.071H4.687a1.081,1.081,0,0,1,0,2.143H2.812A3.034,3.034,0,0,1,0,43.786V35.214A3.034,3.034,0,0,1,2.812,32H4.687a1.081,1.081,0,0,1,0,2.143Z" transform="translate(0 -32)" opacity="0.75"/>
</svg>
