<svg xmlns="http://www.w3.org/2000/svg" width="21.814" height="12.119" viewBox="0 0 21.814 12.119">
  <path id="Path_692" data-name="Path 692" d="M108.907,142.182a3.878,3.878,0,1,0,3.878,3.878A3.89,3.89,0,0,0,108.907,142.182Zm0,6.787a2.908,2.908,0,1,1,2.908-2.908A2.917,2.917,0,0,1,108.907,148.969Zm10.762-3.248-2.084-2.109a12.23,12.23,0,0,0-17.354,0l-2.084,2.109a.469.469,0,0,0,0,.679l2.084,2.109a12.23,12.23,0,0,0,17.354,0l2.084-2.109A.469.469,0,0,0,119.668,145.721Zm-2.763,2.109a11.293,11.293,0,0,1-16,0l-1.745-1.769,1.745-1.769a11.293,11.293,0,0,1,16,0l1.745,1.769Z" transform="translate(-98 -140.001)" fill="#37b5e6"/>
</svg>
