<svg xmlns="http://www.w3.org/2000/svg" width="20.258" height="20.15" viewBox="0 0 20.258 20.15">
  <g id="pending" transform="translate(-2.45 -2.676)">
    <path id="Path_1281" data-name="Path 1281" d="M21.456,4.512a.624.624,0,0,0-1.043-.3L19.348,5.279A10.126,10.126,0,0,0,5.421,19.973c.128.128.256.234.362.362a1.067,1.067,0,0,0,.724.277,1.1,1.1,0,0,0,.809-.362,1.082,1.082,0,0,0-.085-1.533l-.3-.277A7.967,7.967,0,0,1,17.815,6.812L16.644,7.983a.624.624,0,0,0,.3,1.043l4.983,1.214a.641.641,0,0,0,.767-.767Z" transform="translate(0 0)" fill="#f5ad46"/>
    <path id="Path_1282" data-name="Path 1282" d="M49.564,30.244l-2.492-1.576V24.686a1.086,1.086,0,1,0-2.172,0v4.557a1.081,1.081,0,0,0,.511.916l2.981,1.9a1.129,1.129,0,0,0,.575.17,1.059,1.059,0,0,0,.916-.511A1.031,1.031,0,0,0,49.564,30.244Z" transform="translate(-33.41 -16.468)" fill="#f5ad46"/>
    <path id="Path_1283" data-name="Path 1283" d="M33.561,85.621l-.4-.128a1.077,1.077,0,0,0-.681,2.044,4.624,4.624,0,0,0,.511.149,1.246,1.246,0,0,0,.277.043,1.087,1.087,0,0,0,1.043-.809A1.041,1.041,0,0,0,33.561,85.621Z" transform="translate(-23.051 -65.137)" fill="#f5ad46"/>
    <path id="Path_1284" data-name="Path 1284" d="M52.6,86.734l-.426.064a1.085,1.085,0,0,0-.916,1.235,1.112,1.112,0,0,0,1.065.937.529.529,0,0,0,.17-.021c.17-.021.362-.064.532-.085a1.089,1.089,0,0,0,.852-1.278A1.117,1.117,0,0,0,52.6,86.734Z" transform="translate(-38.405 -66.144)" fill="#f5ad46"/>
    <path id="Path_1285" data-name="Path 1285" d="M70.263,78.747,69.922,79a1.087,1.087,0,0,0-.256,1.512,1.089,1.089,0,0,0,1.512.277c.149-.106.3-.213.426-.319a1.085,1.085,0,0,0,.17-1.533A1.061,1.061,0,0,0,70.263,78.747Z" transform="translate(-52.746 -59.69)" fill="#f5ad46"/>
  </g>
</svg>
