<svg xmlns="http://www.w3.org/2000/svg" width="60" height="60" viewBox="0 0 60 60">
  <g id="Group_1176" data-name="Group 1176" transform="translate(-883 -183)">
    <circle id="Ellipse_6" data-name="Ellipse 6" cx="30" cy="30" r="30" transform="translate(883 183)" fill="#ef746b" opacity="0.08"/>
    <g id="Group_178" data-name="Group 178" transform="translate(220.646 -58)">
      <g id="Layer_3" data-name="Layer 3" transform="translate(680.354 259)">
        <path id="Path_673" data-name="Path 673" d="M27.3,7.933h0V7.362a.463.463,0,0,0-.148-.345L23.768,3.638a.463.463,0,0,0-.345-.148H9.916a.493.493,0,0,0-.493.493V10.3a5.537,5.537,0,0,0,0,11.034v6.305a.493.493,0,0,0,.493.493H26.8a.493.493,0,0,0,.493-.493Zm-1.153-.493h-2.63V4.771Zm-20.8,8.374a4.552,4.552,0,1,1,1.34,3.225A4.552,4.552,0,0,1,5.345,15.815Zm5.044,11.34V21.332a5.537,5.537,0,0,0,0-11.034V4.475H22.527V7.933a.493.493,0,0,0,.493.493H26.31V27.154Z" transform="translate(-4.354 -3.49)" fill="#ef746b" stroke="#ef746b" stroke-width="0.6"/>
        <path id="Path_674" data-name="Path 674" d="M11.452,18.171a.5.5,0,0,0,.355.148.483.483,0,0,0,.345-.148.493.493,0,0,0,0-.7l-1.507-1.507,1.507-1.507a.495.495,0,1,0-.7-.7L9.964,15.265,8.437,13.758a.493.493,0,0,0-.7,0,.5.5,0,0,0,0,.7l1.507,1.507L7.738,17.472a.5.5,0,0,0,.355.847.493.493,0,0,0,.345-.148l1.527-1.507Z" transform="translate(-4.402 -3.64)" fill="#ef746b" stroke="#ef746b" stroke-width="0.6"/>
      </g>
    </g>
  </g>
</svg>
