<svg xmlns="http://www.w3.org/2000/svg" width="15.548" height="15.393" viewBox="0 0 15.548 15.393">
  <g id="Group_631" data-name="Group 631" transform="translate(0 0)">
    <path id="Path_912" data-name="Path 912" d="M192.851,117.04v3.729a7.77,7.77,0,0,1,4.946,1.613,8.922,8.922,0,0,1,3.095,7.987l-.4,2.063-1.084-1.8c-2.275-3.835-5.237-4.126-6.559-4.047v3.835L185.42,123.7Zm-.608,8.569c1.111-.185,4.814-.4,7.7,3.861h0a7.723,7.723,0,0,0-2.83-6.295h-.026a7.054,7.054,0,0,0-4.655-1.349h-.635v-2.433l-4.787,4.311,4.787,4.337v-2.38Z" transform="translate(-185.42 -117.04)" fill="#d54608"/>
  </g>
</svg>
