<svg xmlns="http://www.w3.org/2000/svg" width="22.09" height="16.568" viewBox="0 0 22.09 16.568">
  <g id="noun-input-598371" transform="translate(-70 -70)">
    <path id="Path_694" data-name="Path 694" d="M308.89,151.045h-10.7a.69.69,0,0,1,0-1.381h10.7a.346.346,0,0,0,.345-.345v-7.594a.346.346,0,0,0-.345-.345h-10.7a.69.69,0,0,1,0-1.381h10.7a1.728,1.728,0,0,1,1.726,1.726v7.594A1.727,1.727,0,0,1,308.89,151.045Z" transform="translate(-218.526 -67.239)" fill="#222"/>
    <path id="Path_695" data-name="Path 695" d="M74.142,151.045H71.726A1.728,1.728,0,0,1,70,149.319v-7.594A1.728,1.728,0,0,1,71.726,140h2.416a.69.69,0,0,1,0,1.381H71.726a.345.345,0,0,0-.345.345v7.594a.346.346,0,0,0,.345.345h2.416a.69.69,0,0,1,0,1.381Z" transform="translate(0 -67.239)" fill="#222"/>
    <path id="Path_696" data-name="Path 696" d="M228.19,86.568a.69.69,0,0,1-.69-.69V70.69a.69.69,0,1,1,1.381,0V85.877A.69.69,0,0,1,228.19,86.568Z" transform="translate(-151.287)" fill="#222"/>
    <path id="Path_697" data-name="Path 697" d="M179.832,71.381H175.69a.69.69,0,0,1,0-1.381h4.142a.69.69,0,1,1,0,1.381Z" transform="translate(-100.858)" fill="#222"/>
    <path id="Path_698" data-name="Path 698" d="M179.832,456.381H175.69a.69.69,0,1,1,0-1.381h4.142a.69.69,0,1,1,0,1.381Z" transform="translate(-100.858 -369.813)" fill="#222"/>
  </g>
</svg>
